<svg width="45px" height="45px" viewBox="541 260 45 45" version="1.1" xmlns="http://www.w3.org/2000/svg" xmlns:xlink="http://www.w3.org/1999/xlink">
    <!-- Generator: Sketch 39.1 (31720) - http://www.bohemiancoding.com/sketch -->
    <desc>Created with Sketch.</desc>
    <defs></defs>
    <g id="Nukefactory_Logo_Black-Copy" stroke="none" stroke-width="1" fill="none" fill-rule="evenodd" transform="translate(541.000000, 260.000000)">
        <g id="Yellow">
            <circle id="Oval" fill="#000000" cx="22.3847561" cy="22.3847561" r="22.3847561"></circle>
            <path d="M22.3765244,40.8841463 C20.0375588,40.8869693 17.7160797,40.4811748 15.5167683,39.685061 L15.5167683,23.2106707 L7.12591463,33.9118902 C5.6666448,32.2222784 4.49829218,30.3019147 3.66859756,28.2292683 C6.2214225,36.411373 13.7971929,41.983664 22.3682927,41.983664 C30.9393925,41.983664 38.5151629,36.411373 41.0679878,28.2292683 C38.0088119,35.8707292 30.6075921,40.8816549 22.3765244,40.8841463 L22.3765244,40.8841463 Z" id="Shape" fill="#FFFFFF"></path>
            <path d="M22.3847561,3.89634146 C24.7238839,3.89439817 27.0453678,4.30112215 29.2445122,5.09817073 L29.2445122,21.5615854 L37.629878,10.8768293 C39.0879159,12.5658097 40.255323,14.4852161 41.0844512,16.5567073 C39.5691853,11.7136174 36.2374937,7.64537418 31.7881098,5.20518293 L31.7359756,5.1777439 C31.5530488,5.07896341 31.370122,4.9875 31.1871951,4.90335366 L31.104878,4.86219512 C30.9219512,4.77256098 30.7390244,4.68109756 30.5560976,4.58780488 L30.4682927,4.54939024 C30.2853659,4.4652439 30.0969512,4.38292683 29.9030488,4.30243902 L29.8454268,4.2804878 C24.7628292,2.18655849 19.034347,2.32424342 14.058216,4.65993579 C9.08208504,6.99562815 5.31613352,11.3144329 3.67957317,16.5621951 C6.73712613,8.91177797 14.1459752,3.8950188 22.3847561,3.89634146 L22.3847561,3.89634146 Z" id="Shape" fill="#FFFFFF"></path>
        </g>
    </g>
</svg>
